<?xml version="1.0" encoding="utf-8"?>
<!-- Generator: Adobe Illustrator 22.1.0, SVG Export Plug-In . SVG Version: 6.00 Build 0)  -->
<svg version="1.1" xmlns="http://www.w3.org/2000/svg" xmlns:xlink="http://www.w3.org/1999/xlink" x="0px" y="0px"
	 viewBox="0 0 750 1334" style="enable-background:new 0 0 750 1334;" xml:space="preserve">
<style type="text/css">
	.st0{fill:#F54033;}
	.st1{fill:#EF3E5C;}
	.st2{fill:#DE4273;}
	.st3{fill:#FF3D26;}
	.st4{fill:#F1422C;}
	.st5{fill:#D85F50;}
	.st6{fill:#E48D45;}
	.st7{fill:#F38B72;}
	.st8{fill:#CB513B;}
	.st9{fill:#FF5824;}
	.st10{fill:#FF4B2E;}
	.st11{fill:#FF8371;}
	.st12{fill:#EE4034;}
	.st13{fill:#FF6766;}
	.st14{fill:#F5834F;}
	.st15{fill:#FF5453;}
	.st16{fill:#F03E45;}
	.st17{fill:#FF4D3C;}
	.st18{fill:#FF7B39;}
	.st19{fill:#FF8754;}
	.st20{fill:#FF4C2D;}
	.st21{fill:#FF655B;}
	.st22{fill:#DF5C29;}
	.st23{fill:#F75F68;}
	.st24{fill:#FF713F;}
	.st25{fill:#FF7433;}
	.st26{fill:#ED7E63;}
	.st27{fill:#ED4E4B;}
	.st28{fill:#FF586A;}
	.st29{fill:#DA7A58;}
	.st30{fill:#D86067;}
	.st31{fill:#F7827D;}
	.st32{fill:#FF4D5E;}
	.st33{fill:#FF777E;}
	.st34{fill:#FF6E54;}
	.st35{fill:#FF6062;}
	.st36{fill:#FF6E3C;}
	.st37{fill:#E04C39;}
	.st38{fill:#FF8B59;}
	.st39{fill:#DA6128;}
	.st40{fill:#FF4F74;}
	.st41{fill:#FF6C44;}
	.st42{fill:#FF8C4B;}
	.st43{fill:#DE7056;}
	.st44{fill:#F87935;}
	.st45{fill:#F0694D;}
	.st46{fill:#FF6634;}
	.st47{fill:#FF6C3D;}
	.st48{fill:#E0842C;}
	.st49{fill:#DC5D57;}
	.st50{fill:#FB6B51;}
	.st51{fill:#ED4153;}
	.st52{fill:#FF6F5B;}
	.st53{fill:#DC4962;}
	.st54{fill:#EB525A;}
	.st55{fill:#DC5969;}
	.st56{fill:#FF4834;}
	.st57{fill:#F0786D;}
	.st58{fill:#E5735A;}
	.st59{fill:#FD8852;}
	.st60{fill:#F0764F;}
	.st61{fill:#E96225;}
	.st62{fill:#F04750;}
	.st63{fill:#FF612D;}
	.st64{fill:#FF4A4A;}
	.st65{fill:#FE6C31;}
	.st66{fill:#EC4452;}
	.st67{fill:#FF4B46;}
	.st68{fill:#D2593D;}
	.st69{fill:#FF4F20;}
	.st70{fill:#E66F3E;}
	.st71{fill:#E07A5F;}
	.st72{fill:#FF6839;}
	.st73{fill:#F9472F;}
	.st74{fill:#FF5A41;}
	.st75{fill:#FF5379;}
	.st76{fill:#FF662D;}
	.st77{fill:#DE646B;}
	.st78{fill:#DD712D;}
	.st79{fill:#E05074;}
	.st80{fill:#FF664B;}
	.st81{fill:#FF565B;}
	.st82{fill:#DF4553;}
	.st83{fill:#F17E3B;}
	.st84{fill:#FF3F40;}
	.st85{fill:#EA302E;}
	.st86{fill:#E36724;}
	.st87{fill:#FF5738;}
	.st88{fill:#F7926D;}
	.st89{fill:#E56C20;}
	.st90{fill:#E3682A;}
	.st91{fill:#FE7436;}
	.st92{fill:#FF5964;}
	.st93{fill:#F4535F;}
	.st94{fill:#FF7748;}
	.st95{fill:#FA3B34;}
	.st96{fill:#FF7B26;}
	.st97{fill:#FF7D53;}
	.st98{fill:#EA664F;}
	.st99{fill:#FF4633;}
	.st100{fill:#FF7B27;}
	.st101{fill:#FF873E;}
	.st102{fill:#E23B58;}
	.st103{fill:#FD5D61;}
	.st104{fill:#FF7938;}
	.st105{fill:#D36D60;}
	.st106{fill:#ED8043;}
	.st107{fill:#F17142;}
	.st108{fill:#FF5531;}
	.st109{fill:#FF6B57;}
	.st110{fill:#F55863;}
	.st111{fill:#FF4E43;}
	.st112{fill:#ED8E43;}
	.st113{fill:#EB8C7A;}
	.st114{fill:#FF8C4F;}
	.st115{fill:#E65026;}
	.st116{fill:#F3876D;}
	.st117{fill:#DF5752;}
	.st118{fill:#EB8052;}
	.st119{fill:#C94957;}
	.st120{fill:#E33A51;}
	.st121{fill:#FF4A56;}
	.st122{fill:#F9735D;}
	.st123{fill:#E64950;}
	.st124{fill:#EC5C2F;}
	.st125{fill:#FF8C7D;}
	.st126{fill:#FF4362;}
	.st127{fill:#FF6B36;}
	.st128{fill:#F15D43;}
	.st129{fill:#F05737;}
	.st130{fill:#FB6E32;}
	.st131{fill:#FF8369;}
	.st132{fill:#FF6D70;}
	.st133{fill:#FF865F;}
	.st134{fill:#E97938;}
	.st135{fill:#FF914F;}
	.st136{fill:#E28966;}
	.st137{fill:#FF3F69;}
	.st138{fill:#FF4455;}
	.st139{fill:#FF7863;}
	.st140{fill:#5DA542;}
	.st141{fill:#10C175;}
	.st142{fill:#2A5406;}
	.st143{fill:#239B0A;}
	.st144{fill:#9FEF7B;}
</style>
<g id="background">
	<g>
		<g id="all_7">
			<path class="st0" d="M0,0h149.6L74.8,74.8L0,0z"/>
			<path class="st1" d="M149.6-2v149.6L74.8,72.8L149.6-2z"/>
			<path class="st2" d="M149.6,147.6H0l74.8-74.8L149.6,147.6z"/>
			<path class="st3" d="M0,149.6V0l74.8,74.8L0,149.6z"/>
			<path class="st4" d="M149.6,0h149.6l-74.8,74.8L149.6,0z"/>
			<path class="st5" d="M299.1,0v149.6l-74.8-74.8L299.1,0z"/>
			<path class="st6" d="M299.1,147.6H149.6l74.8-74.8L299.1,147.6z"/>
			<path class="st7" d="M149.6,147.6V-2l74.8,74.8L149.6,147.6z"/>
			<path class="st8" d="M299.1,0h149.6l-74.8,74.8L299.1,0z"/>
			<path class="st9" d="M448.7-2v149.6l-74.8-74.8L448.7-2z"/>
			<path class="st10" d="M449.7,149.6H300.1l74.8-74.8L449.7,149.6z"/>
			<path class="st11" d="M299.1,149.6V0l74.8,74.8L299.1,149.6z"/>
			<path class="st12" d="M448.7,0h149.6l-74.8,74.8L448.7,0z"/>
			<path class="st13" d="M598.3,0v149.6l-74.8-74.8L598.3,0z"/>
			<path class="st14" d="M598.3,149.6H448.7l74.8-74.8L598.3,149.6z"/>
			<path class="st15" d="M448.7,149.6V0l74.8,74.8L448.7,149.6z"/>
			<path class="st16" d="M598.3,0h149.6l-74.8,74.8L598.3,0z"/>
			<path class="st17" d="M747.9,0v149.6l-74.8-74.8L747.9,0z"/>
			<path class="st18" d="M747.9,149.6H598.3l74.8-74.8L747.9,149.6z"/>
			<path class="st19" d="M598.3,149.6V0l74.8,74.8L598.3,149.6z"/>
			<path class="st20" d="M0,149.6h149.6l-74.8,74.8L0,149.6z"/>
			<path class="st21" d="M149.6,149.6v149.6l-74.8-74.8L149.6,149.6z"/>
			<path class="st22" d="M149.6,299.1H0l74.8-74.8L149.6,299.1z"/>
			<path class="st23" d="M0,299.1V149.6l74.8,74.8L0,299.1z"/>
			<path class="st24" d="M149.6,149.6h149.6l-74.8,74.8L149.6,149.6z"/>
			<path class="st25" d="M299.1,149.6v149.6l-74.8-74.8L299.1,149.6z"/>
			<path class="st26" d="M299.1,299.1H149.6l74.8-74.8L299.1,299.1z"/>
			<path class="st27" d="M149.6,299.1V149.6l74.8,74.8L149.6,299.1z"/>
			<path class="st28" d="M300.1,148.6h149.6l-74.8,74.8L300.1,148.6z"/>
			<path class="st29" d="M448.7,149.6v149.6l-74.8-74.8L448.7,149.6z"/>
			<path class="st30" d="M448.7,299.1H299.1l74.8-74.8L448.7,299.1z"/>
			<path class="st31" d="M299.1,299.1V149.6l74.8,74.8L299.1,299.1z"/>
			<path class="st32" d="M448.7,149.6h149.6l-74.8,74.8L448.7,149.6z"/>
			<path class="st33" d="M598.3,149.6v149.6l-74.8-74.8L598.3,149.6z"/>
			<path class="st34" d="M598.3,299.1H448.7l74.8-74.8L598.3,299.1z"/>
			<path class="st35" d="M448.7,299.1V149.6l74.8,74.8L448.7,299.1z"/>
			<path class="st36" d="M598.3,149.6h149.6l-74.8,74.8L598.3,149.6z"/>
			<path class="st37" d="M747.9,149.6v149.6l-74.8-74.8L747.9,149.6z"/>
			<path class="st38" d="M747.9,299.1H598.3l74.8-74.8L747.9,299.1z"/>
			<path class="st39" d="M598.3,299.1V149.6l74.8,74.8L598.3,299.1z"/>
			<path class="st40" d="M0,299.1h149.6l-74.8,74.8L0,299.1z"/>
			<path class="st41" d="M149.6,299.1v149.6l-74.8-74.8L149.6,299.1z"/>
			<path class="st42" d="M149.6,448.7H0l74.8-74.8L149.6,448.7z"/>
			<path class="st43" d="M0,448.7V299.1l74.8,74.8L0,448.7z"/>
			<path class="st44" d="M149.6,299.1h149.6l-74.8,74.8L149.6,299.1z"/>
			<path class="st45" d="M299.1,299.1v149.6l-74.8-74.8L299.1,299.1z"/>
			<path class="st46" d="M299.1,448.7H149.6l74.8-74.8L299.1,448.7z"/>
			<path class="st47" d="M149.6,448.7V299.1l74.8,74.8L149.6,448.7z"/>
			<path class="st48" d="M299.1,299.1h149.6l-74.8,74.8L299.1,299.1z"/>
			<path class="st49" d="M448.7,299.1v149.6l-74.8-74.8L448.7,299.1z"/>
			<path class="st50" d="M448.7,448.7H299.1l74.8-74.8L448.7,448.7z"/>
			<path class="st51" d="M299.1,448.7V299.1l74.8,74.8L299.1,448.7z"/>
			<path class="st52" d="M448.7,299.1h149.6l-74.8,74.8L448.7,299.1z"/>
			<path class="st53" d="M598.3,299.1v149.6l-74.8-74.8L598.3,299.1z"/>
			<path class="st54" d="M598.3,448.7H448.7l74.8-74.8L598.3,448.7z"/>
			<path class="st55" d="M448.7,448.7V299.1l74.8,74.8L448.7,448.7z"/>
			<path class="st56" d="M598.3,299.1h149.6l-74.8,74.8L598.3,299.1z"/>
			<path class="st57" d="M747.9,299.1v149.6l-74.8-74.8L747.9,299.1z"/>
			<path class="st58" d="M747.9,448.7H598.3l74.8-74.8L747.9,448.7z"/>
			<path class="st59" d="M598.3,448.7V299.1l74.8,74.8L598.3,448.7z"/>
			<path class="st60" d="M0,448.7h149.6l-74.8,74.8L0,448.7z"/>
			<path class="st61" d="M149.6,448.7v149.6l-74.8-74.8L149.6,448.7z"/>
			<path class="st62" d="M149.6,598.3H0l74.8-74.8L149.6,598.3z"/>
			<path class="st63" d="M0,598.3V448.7l74.8,74.8L0,598.3z"/>
			<path class="st64" d="M149.6,448.7h149.6l-74.8,74.8L149.6,448.7z"/>
			<path class="st65" d="M299.1,448.7v149.6l-74.8-74.8L299.1,448.7z"/>
			<path class="st66" d="M299.1,598.3H149.6l74.8-74.8L299.1,598.3z"/>
			<path class="st67" d="M149.6,598.3V448.7l74.8,74.8L149.6,598.3z"/>
			<path class="st68" d="M299.1,448.7h149.6l-74.8,74.8L299.1,448.7z"/>
			<path class="st69" d="M448.7,448.7v149.6l-74.8-74.8L448.7,448.7z"/>
			<path class="st70" d="M448.7,598.3H299.1l74.8-74.8L448.7,598.3z"/>
			<path class="st71" d="M299.1,598.3V448.7l74.8,74.8L299.1,598.3z"/>
			<path class="st72" d="M448.7,448.7h149.6l-74.8,74.8L448.7,448.7z"/>
			<path class="st73" d="M598.3,448.7v149.6l-74.8-74.8L598.3,448.7z"/>
			<path class="st74" d="M598.3,598.3H448.7l74.8-74.8L598.3,598.3z"/>
			<path class="st75" d="M448.7,598.3V448.7l74.8,74.8L448.7,598.3z"/>
			<path class="st76" d="M598.3,448.7h149.6l-74.8,74.8L598.3,448.7z"/>
			<path class="st77" d="M747.9,448.7v149.6l-74.8-74.8L747.9,448.7z"/>
			<path class="st78" d="M747.9,598.3H598.3l74.8-74.8L747.9,598.3z"/>
			<path class="st79" d="M598.3,598.3V448.7l74.8,74.8L598.3,598.3z"/>
			<path class="st80" d="M0,598.3h149.6l-74.8,74.8L0,598.3z"/>
			<path class="st81" d="M149.6,598.3v149.6l-74.8-74.8L149.6,598.3z"/>
			<path class="st82" d="M149.6,747.9H0l74.8-74.8L149.6,747.9z"/>
			<path class="st83" d="M0,747.9V598.3l74.8,74.8L0,747.9z"/>
			<path class="st84" d="M149.6,598.3h149.6l-74.8,74.8L149.6,598.3z"/>
			<path class="st85" d="M299.1,598.3v149.6l-74.8-74.8L299.1,598.3z"/>
			<path class="st86" d="M299.1,747.9H149.6l74.8-74.8L299.1,747.9z"/>
			<path class="st87" d="M149.6,747.9V598.3l74.8,74.8L149.6,747.9z"/>
			<path class="st88" d="M299.1,598.3h149.6l-74.8,74.8L299.1,598.3z"/>
			<path class="st89" d="M448.7,598.3v149.6l-74.8-74.8L448.7,598.3z"/>
			<path class="st90" d="M448.7,747.9H299.1l74.8-74.8L448.7,747.9z"/>
			<path class="st91" d="M299.1,747.9V598.3l74.8,74.8L299.1,747.9z"/>
			<path class="st92" d="M448.7,598.3h149.6l-74.8,74.8L448.7,598.3z"/>
			<path class="st93" d="M598.3,598.3v149.6l-74.8-74.8L598.3,598.3z"/>
			<path class="st94" d="M598.3,747.9H448.7l74.8-74.8L598.3,747.9z"/>
			<path class="st95" d="M448.7,747.9V598.3l74.8,74.8L448.7,747.9z"/>
			<path class="st96" d="M598.3,598.3h149.6l-74.8,74.8L598.3,598.3z"/>
			<path class="st97" d="M747.9,598.3v149.6l-74.8-74.8L747.9,598.3z"/>
			<path class="st98" d="M747.9,747.9H598.3l74.8-74.8L747.9,747.9z"/>
			<path class="st99" d="M598.3,747.9V598.3l74.8,74.8L598.3,747.9z"/>
			<path class="st100" d="M0,747.9h149.6l-74.8,74.8L0,747.9z"/>
			<path class="st101" d="M149.6,747.9v149.6l-74.8-74.8L149.6,747.9z"/>
			<path class="st102" d="M149.6,897.4H0l74.8-74.8L149.6,897.4z"/>
			<path class="st103" d="M0,897.4V747.9l74.8,74.8L0,897.4z"/>
			<path class="st104" d="M149.6,747.9h149.6l-74.8,74.8L149.6,747.9z"/>
			<path class="st105" d="M299.1,747.9v149.6l-74.8-74.8L299.1,747.9z"/>
			<path class="st106" d="M299.1,897.4H149.6l74.8-74.8L299.1,897.4z"/>
			<path class="st107" d="M149.6,897.4V747.9l74.8,74.8L149.6,897.4z"/>
			<path class="st108" d="M299.1,747.9h149.6l-74.8,74.8L299.1,747.9z"/>
			<path class="st109" d="M448.7,747.9v149.6l-74.8-74.8L448.7,747.9z"/>
			<path class="st110" d="M448.7,897.4H299.1l74.8-74.8L448.7,897.4z"/>
			<path class="st111" d="M299.1,897.4V747.9l74.8,74.8L299.1,897.4z"/>
			<path class="st112" d="M448.7,747.9h149.6l-74.8,74.8L448.7,747.9z"/>
			<path class="st113" d="M598.3,747.9v149.6l-74.8-74.8L598.3,747.9z"/>
			<path class="st114" d="M598.3,897.4H448.7l74.8-74.8L598.3,897.4z"/>
			<path class="st115" d="M448.7,897.4V747.9l74.8,74.8L448.7,897.4z"/>
			<path class="st116" d="M598.3,747.9h149.6l-74.8,74.8L598.3,747.9z"/>
			<path class="st117" d="M747.9,747.9v149.6l-74.8-74.8L747.9,747.9z"/>
			<path class="st118" d="M747.9,897.4H598.3l74.8-74.8L747.9,897.4z"/>
			<path class="st119" d="M598.3,897.4V747.9l74.8,74.8L598.3,897.4z"/>
			<path class="st120" d="M0,897.4h149.6l-74.8,74.8L0,897.4z"/>
			<path class="st121" d="M149.6,897.4V1047l-74.8-74.8L149.6,897.4z"/>
			<path class="st122" d="M149.6,1047H0l74.8-74.8L149.6,1047z"/>
			<path class="st123" d="M0,1047V897.4l74.8,74.8L0,1047z"/>
			<path class="st124" d="M149.6,897.4h149.6l-74.8,74.8L149.6,897.4z"/>
			<path class="st125" d="M299.1,897.4V1047l-74.8-74.8L299.1,897.4z"/>
			<path class="st126" d="M299.1,1047H149.6l74.8-74.8L299.1,1047z"/>
			<path class="st127" d="M149.6,1047V897.4l74.8,74.8L149.6,1047z"/>
			<path class="st128" d="M299.1,897.4h149.6l-74.8,74.8L299.1,897.4z"/>
			<path class="st129" d="M448.7,897.4V1047l-74.8-74.8L448.7,897.4z"/>
			<path class="st130" d="M448.7,1047H299.1l74.8-74.8L448.7,1047z"/>
			<path class="st131" d="M299.1,1047V897.4l74.8,74.8L299.1,1047z"/>
			<path class="st132" d="M448.7,897.4h149.6l-74.8,74.8L448.7,897.4z"/>
			<path class="st133" d="M598.3,897.4V1047l-74.8-74.8L598.3,897.4z"/>
			<path class="st134" d="M598.3,1047H448.7l74.8-74.8L598.3,1047z"/>
			<path class="st135" d="M448.7,1047V897.4l74.8,74.8L448.7,1047z"/>
			<path class="st136" d="M598.3,897.4h149.6l-74.8,74.8L598.3,897.4z"/>
			<path class="st137" d="M747.9,897.4V1047l-74.8-74.8L747.9,897.4z"/>
			<path class="st138" d="M747.9,1047H598.3l74.8-74.8L747.9,1047z"/>
			<path class="st139" d="M598.3,1047V897.4l74.8,74.8L598.3,1047z"/>
		</g>
	</g>
	<g>
		<g id="all_7_1_">
			<path class="st0" d="M0,1047h149.6l-74.8,74.8L0,1047z"/>
			<path class="st1" d="M149.6,1047v149.6l-74.8-74.8L149.6,1047z"/>
			<path class="st2" d="M149.6,1196.6H0l74.8-74.8L149.6,1196.6z"/>
			<path class="st3" d="M0,1196.6V1047l74.8,74.8L0,1196.6z"/>
			<path class="st4" d="M149.6,1047h149.6l-74.8,74.8L149.6,1047z"/>
			<path class="st5" d="M299.1,1047v149.6l-74.8-74.8L299.1,1047z"/>
			<path class="st6" d="M299.1,1196.6H149.6l74.8-74.8L299.1,1196.6z"/>
			<path class="st7" d="M149.6,1196.6V1047l74.8,74.8L149.6,1196.6z"/>
			<path class="st8" d="M299.1,1047h149.6l-74.8,74.8L299.1,1047z"/>
			<path class="st9" d="M448.7,1047v149.6l-74.8-74.8L448.7,1047z"/>
			<path class="st10" d="M448.7,1196.6H299.1l74.8-74.8L448.7,1196.6z"/>
			<path class="st11" d="M299.1,1196.6V1047l74.8,74.8L299.1,1196.6z"/>
			<path class="st12" d="M448.7,1047h149.6l-74.8,74.8L448.7,1047z"/>
			<path class="st13" d="M598.3,1047v149.6l-74.8-74.8L598.3,1047z"/>
			<path class="st14" d="M598.3,1196.6H448.7l74.8-74.8L598.3,1196.6z"/>
			<path class="st15" d="M448.7,1196.6V1047l74.8,74.8L448.7,1196.6z"/>
			<path class="st16" d="M598.3,1047h149.6l-74.8,74.8L598.3,1047z"/>
			<path class="st17" d="M747.9,1047v149.6l-74.8-74.8L747.9,1047z"/>
			<path class="st18" d="M747.9,1196.6H598.3l74.8-74.8L747.9,1196.6z"/>
			<path class="st19" d="M598.3,1196.6V1047l74.8,74.8L598.3,1196.6z"/>
			<path class="st20" d="M0,1196.6h149.6l-74.8,74.8L0,1196.6z"/>
			<path class="st21" d="M149.6,1196.6v149.6l-74.8-74.8L149.6,1196.6z"/>
			<path class="st22" d="M149.6,1346.1H0l74.8-74.8L149.6,1346.1z"/>
			<path class="st23" d="M0,1346.1v-149.6l74.8,74.8L0,1346.1z"/>
			<path class="st24" d="M149.6,1196.6h149.6l-74.8,74.8L149.6,1196.6z"/>
			<path class="st25" d="M299.1,1196.6v149.6l-74.8-74.8L299.1,1196.6z"/>
			<path class="st26" d="M299.1,1346.1H149.6l74.8-74.8L299.1,1346.1z"/>
			<path class="st27" d="M149.6,1346.1v-149.6l74.8,74.8L149.6,1346.1z"/>
			<path class="st28" d="M299.1,1196.6h149.6l-74.8,74.8L299.1,1196.6z"/>
			<path class="st29" d="M448.7,1196.6v149.6l-74.8-74.8L448.7,1196.6z"/>
			<path class="st30" d="M448.7,1346.1H299.1l74.8-74.8L448.7,1346.1z"/>
			<path class="st31" d="M299.1,1346.1v-149.6l74.8,74.8L299.1,1346.1z"/>
			<path class="st32" d="M448.7,1196.6h149.6l-74.8,74.8L448.7,1196.6z"/>
			<path class="st33" d="M598.3,1196.6v149.6l-74.8-74.8L598.3,1196.6z"/>
			<path class="st34" d="M598.3,1346.1H448.7l74.8-74.8L598.3,1346.1z"/>
			<path class="st35" d="M448.7,1346.1v-149.6l74.8,74.8L448.7,1346.1z"/>
			<path class="st36" d="M598.3,1196.6h149.6l-74.8,74.8L598.3,1196.6z"/>
			<path class="st37" d="M747.9,1196.6v149.6l-74.8-74.8L747.9,1196.6z"/>
			<path class="st38" d="M747.9,1346.1H598.3l74.8-74.8L747.9,1346.1z"/>
			<path class="st39" d="M598.3,1346.1v-149.6l74.8,74.8L598.3,1346.1z"/>
		</g>
	</g>
</g>
<g id="tail">
	<path class="st140" d="M150.1,148H0.6l74.8-74.8L150.1,148z"/>
	<path class="st141" d="M149.7-2v149.6L74.9,72.8L149.7-2z"/>
	<path class="st140" d="M299.3,149.6H149.7l74.8-74.8L299.3,149.6z"/>
	<path class="st140" d="M375.3,75H225.7l74.8-74.8L375.3,75z"/>
	<path class="st142" d="M149.7,149.6V0l74.8,74.8L149.7,149.6z"/>
	<path class="st141" d="M448.9,0v149.6l-74.8-74.8L448.9,0z"/>
	<path class="st143" d="M448.9,149.6H299.3l74.8-74.8L448.9,149.6z"/>
	<path class="st141" d="M448.9,0h149.6l-74.8,74.8L448.9,0z"/>
	<path class="st144" d="M224.9,75h149.6l-74.8,74.8L224.9,75z"/>
	<path class="st143" d="M598.4,0v149.6l-74.8-74.8L598.4,0z"/>
	<path class="st140" d="M598.4,149.6H448.9l74.8-74.8L598.4,149.6z"/>
	<path class="st143" d="M448.9,149.6V0l74.8,74.8L448.9,149.6z"/>
	<path class="st144" d="M598.4,0H748l-74.8,74.8L598.4,0z"/>
	<path class="st142" d="M598.4,149.6V0l74.8,74.8L598.4,149.6z"/>
	<path class="st142" d="M0.1,147.6h149.6l-74.8,74.8L0.1,147.6z"/>
	<path class="st143" d="M0.1,297.1V147.6l74.8,74.8L0.1,297.1z"/>
	<path class="st141" d="M299.3,149.6h149.6l-74.8,74.8L299.3,149.6z"/>
</g>
</svg>
