<?xml version="1.0" encoding="utf-8"?>
<!-- Generator: Adobe Illustrator 22.1.0, SVG Export Plug-In . SVG Version: 6.00 Build 0)  -->
<svg version="1.1" id="Capa_1" xmlns="http://www.w3.org/2000/svg" xmlns:xlink="http://www.w3.org/1999/xlink" x="0px" y="0px"
	 viewBox="0 0 788 717" style="enable-background:new 0 0 788 717;" xml:space="preserve">
<style type="text/css">
	.st0{fill:#2A5406;}
	.st1{fill:#5DA542;}
	.st2{opacity:0.55;fill:#239B0A;}
	.st3{opacity:0.5;fill:#75C654;}
	.st4{fill:#10C175;}
	.st5{fill:#F7FCFE;}
	.st6{fill:#75C654;}
	.st7{fill:#239B0A;}
	.st8{opacity:0.74;fill:#75C654;}
</style>
<g>
	<polygon class="st0" points="435,177.5 416.9,138.6 448.9,74.5 435,134.4 448.9,145.5 492.1,66.2 499.1,130.2 536.7,70.3 
		528.3,120.5 577,53.6 558.9,120.5 646.6,23 616,94 668.9,46.7 648,82.9 730.2,23 666.1,101 659.2,170.6 	"/>
	<path class="st1" d="M87.7,207.5v-61.3l43.2-16.7c0,0,12.5-12.5,15.3-7c2.8,5.6,15.3,15.3,15.3,15.3v13.9l-7,55.7l16.7-61.3
		l37.6,4.2l20.9,13.9l-9.7,30.6l16.7,19.5c0,0,32,8.4,37.6,7c5.6-1.4,37.6,0,37.6,0l-13.9-44.6l5.6-30.6c0,0,22.3-9.7,29.2-12.5
		c7-2.8,29.2-13.9,32-11.1c2.8,2.8,40.4,27.8,40.4,27.8l16.7,19.5l37.6-11.1h44.6l66.8-19.5l83.5,11.1l23.7,26.5l108.6,47.3v445.5
		L536,487.3l-82.1-43.2L405.1,465c0,0-8.4,78-12.5,79.4c-4.2,1.4-107.2,45.9-110,44.6c-2.8-1.4-87.7,0-87.7,0l-64-33.4L115.5,511
		l16-9h89.1l59.9-20.9l62.7-57.1l50.1-51.5l29.2-15.3l-8.4-54.3l-66.8,7l-172.6-62.7L92.5,275l-8.4-27.8L87.7,207.5z"/>
	<polygon class="st2" points="493.5,437.9 539.4,437.9 517.2,481.1 	"/>
	<polygon class="st2" points="662,579.2 707.9,579.2 685.6,622.4 	"/>
	<polygon class="st2" points="547.8,467.1 593.7,467.1 571.5,510.3 	"/>
	<polygon class="st2" points="642.5,516.6 688.4,516.6 666.1,559.7 	"/>
	<polygon class="st2" points="631.3,547.9 677.3,547.9 655,591 	"/>
	<polygon class="st2" points="726,597.3 772,597.3 749.7,640.5 	"/>
	<polygon class="st2" points="595.1,430.9 641.1,430.9 618.8,474.1 	"/>
	<polygon class="st2" points="689.8,480.4 735.8,480.4 713.5,523.5 	"/>
	<polygon class="st2" points="631.3,366.9 677.3,366.9 655,410 	"/>
	<polygon class="st2" points="726,416.3 772,416.3 749.7,459.5 	"/>
	<polygon class="st3" points="729.8,569 687.4,551.2 724.7,520.1 	"/>
	<polygon class="st3" points="760.4,599.6 718.1,581.9 755.3,550.7 	"/>
	<polygon class="st3" points="586.4,446.5 544,428.7 581.3,397.5 	"/>
	<polygon class="st3" points="617,477.1 574.7,459.4 611.9,428.2 	"/>
	<polygon class="st3" points="756.2,489.7 713.9,471.9 751.1,440.7 	"/>
	<polygon class="st3" points="786.9,520.3 744.5,502.5 781.7,471.3 	"/>
	<polygon class="st4" points="691.9,439.1 646.2,443.6 664.2,398.5 	"/>
	<polygon class="st4" points="733.4,451.5 687.7,456 705.7,410.8 	"/>
	<polygon class="st4" points="746.2,610.3 700.5,614.8 718.5,569.7 	"/>
	<polygon class="st4" points="787.7,622.7 742,627.2 760,582.1 	"/>
	<polygon class="st4" points="737.9,583.9 692.2,588.4 710.1,543.3 	"/>
	<polygon class="st4" points="779.4,596.3 733.7,600.8 751.6,555.6 	"/>
	<polygon class="st4" points="788.7,454.4 743,458.9 760.9,413.8 	"/>
	<polygon class="st4" points="785,684 739.2,688.5 757.2,643.4 	"/>
	<polygon class="st2" points="553.4,383.6 599.3,383.6 577,426.8 	"/>
	<polygon class="st2" points="648,433 694,433 671.7,476.2 	"/>
	<polygon class="st4" points="732.3,464.1 686.6,468.7 704.5,423.5 	"/>
	<polygon class="st2" points="599.3,486.6 645.3,486.6 623,529.8 	"/>
	<polygon class="st2" points="694,536 739.9,536 717.7,579.2 	"/>
	<polygon class="st3" points="692.2,495.2 649.8,477.5 687.1,446.3 	"/>
	<polygon class="st4" points="778.3,567.2 732.5,571.7 750.5,526.5 	"/>
	<polygon class="st2" points="493.5,437.9 539.4,437.9 517.2,481.1 	"/>
	<polygon class="st2" points="662,579.2 707.9,579.2 685.6,622.4 	"/>
	<polygon class="st2" points="547.8,467.1 593.7,467.1 571.5,510.3 	"/>
	<polygon class="st2" points="642.5,516.6 688.4,516.6 666.1,559.7 	"/>
	<polygon class="st2" points="631.3,547.9 677.3,547.9 655,591 	"/>
	<polygon class="st2" points="726,597.3 772,597.3 749.7,640.5 	"/>
	<polygon class="st2" points="595.1,430.9 641.1,430.9 618.8,474.1 	"/>
	<polygon class="st2" points="689.8,480.4 735.8,480.4 713.5,523.5 	"/>
	<polygon class="st2" points="631.3,366.9 677.3,366.9 655,410 	"/>
	<polygon class="st2" points="726,416.3 772,416.3 749.7,459.5 	"/>
	<polygon class="st2" points="628.5,280.6 674.5,280.6 652.2,323.7 	"/>
	<polygon class="st2" points="723.2,330 769.2,330 746.9,373.2 	"/>
	<polygon class="st2" points="689.8,298 735.8,298 713.5,341.1 	"/>
	<polygon class="st2" points="705.1,229.8 751.1,229.8 728.8,272.9 	"/>
	<polygon class="st2" points="677.3,176.8 723.2,176.8 700.9,220 	"/>
	<polygon class="st3" points="735.4,194.5 693,176.7 730.2,145.5 	"/>
	<polygon class="st3" points="766,225.1 723.6,207.4 760.9,176.2 	"/>
	<polygon class="st3" points="693.6,372.7 651.2,354.9 688.5,323.7 	"/>
	<polygon class="st3" points="724.2,403.3 681.9,385.6 719.1,354.4 	"/>
	<polygon class="st3" points="729.8,569 687.4,551.2 724.7,520.1 	"/>
	<polygon class="st3" points="760.4,599.6 718.1,581.9 755.3,550.7 	"/>
	<polygon class="st3" points="586.4,446.5 544,428.7 581.3,397.5 	"/>
	<polygon class="st3" points="617,477.1 574.7,459.4 611.9,428.2 	"/>
	<polygon class="st3" points="756.2,489.7 713.9,471.9 751.1,440.7 	"/>
	<polygon class="st3" points="786.9,520.3 744.5,502.5 781.7,471.3 	"/>
	<polygon class="st4" points="740.7,292.9 694.9,297.4 712.9,252.3 	"/>
	<polygon class="st4" points="782.2,305.3 736.5,309.8 754.4,264.7 	"/>
	<polygon class="st4" points="691.9,439.1 646.2,443.6 664.2,398.5 	"/>
	<polygon class="st4" points="733.4,451.5 687.7,456 705.7,410.8 	"/>
	<polygon class="st4" points="746.2,610.3 700.5,614.8 718.5,569.7 	"/>
	<polygon class="st4" points="787.7,622.7 742,627.2 760,582.1 	"/>
	<polygon class="st4" points="737.9,583.9 692.2,588.4 710.1,543.3 	"/>
	<polygon class="st4" points="779.4,596.3 733.7,600.8 751.6,555.6 	"/>
	<polygon class="st4" points="777.5,533.8 731.8,538.3 749.8,493.1 	"/>
	<polygon class="st4" points="791.3,678.4 745.6,682.9 763.5,637.8 	"/>
	<polygon class="st2" points="553.4,383.6 599.3,383.6 577,426.8 	"/>
	<polygon class="st2" points="648,433 694,433 671.7,476.2 	"/>
	<polygon class="st3" points="646.3,392.2 603.9,374.4 641.1,343.2 	"/>
	<polygon class="st4" points="732.3,464.1 686.6,468.7 704.5,423.5 	"/>
	<polygon class="st2" points="599.3,486.6 645.3,486.6 623,529.8 	"/>
	<polygon class="st2" points="694,536 739.9,536 717.7,579.2 	"/>
	<polygon class="st3" points="692.2,495.2 649.8,477.5 687.1,446.3 	"/>
	<polygon class="st4" points="778.3,567.2 732.5,571.7 750.5,526.5 	"/>
	<polygon class="st5" points="101.4,316.2 118.1,412.3 133.4,305.1 118.1,282.8 	"/>
	<polygon class="st5" points="205.8,367.6 200.2,274.3 233.6,274.3 	"/>
	<polygon class="st5" points="251,400.2 274.2,483.3 244,489.8 	"/>
	<polygon class="st5" points="153.9,401.1 156.4,487.3 187.1,484.6 	"/>
	<path class="st6" d="M136.8,529.8l8.6,26.5l33.4,12.5c0,0,1.4-12.5,8.4-12.5c7,0,39,16.7,39,16.7l18.1-22.3l55.7,9.7l8.4-36.2
		l69.6-7l-12.5-51.5l32-20.9l37.6-23.7l37.6,9.7l7-47.3l68.2-4.2L520,348.8c0,0,45.9-13.9,43.2-18.1c-2.8-4.2-43.2-33.4-43.2-33.4
		l51.5-52.9l-34.8-23.7l26.5-26.5H513l-5.6-30.6L484,177.5l-17.6-18.8l-43.9,11.8l-29.2,23.7l-69.6,36.2h-26.5l16.7,20.9l19.5,9.7
		v4.2l25.1,8.4l30.6-8.4l23.7-13.9l22.6-4.1l-4.5,51.5v55.7L286,486.6l-65.4,23.7h-83.5L136.8,529.8z"/>
	<path class="st7" d="M342.4,182.4l8.4-48.7c0,0,13.9,45.9,15.3,43.2c1.4-2.8,18.1-18.1,18.1-18.1l12.5,23.7l15.3-18.1l16.7,36.2
		l37.6-23.7l-7,30.6l59.9,12.5L458,233.9l36.2,26.5l-80.8-18.1l-7-29.2L342.4,182.4z"/>
	<polyline class="st5" points="327.1,207.5 322.9,229.8 353.6,253.4 387,245.1 392.6,220 387,194.9 353.6,194.9 327.1,197.7 	"/>
	<circle cx="346.6" cy="221.4" r="13.9"/>
	<polygon class="st2" points="540.8,336.3 586.8,336.3 564.5,379.4 	"/>
	<polygon class="st2" points="635.5,385.7 681.5,385.7 659.2,428.8 	"/>
	<polygon class="st2" points="575.6,252.7 621.6,252.7 599.3,295.9 	"/>
	<polygon class="st2" points="670.3,302.1 716.3,302.1 694,345.3 	"/>
	<polygon class="st2" points="659.2,333.5 705.1,333.5 682.8,376.6 	"/>
	<polygon class="st2" points="730.9,382.9 776.8,382.9 754.5,426.1 	"/>
	<polygon class="st2" points="623,216.5 668.9,216.5 646.6,259.7 	"/>
	<polygon class="st2" points="717.7,266 763.6,266 741.3,309.1 	"/>
	<polygon class="st2" points="659.2,152.5 705.1,152.5 682.8,195.6 	"/>
	<polygon class="st2" points="742.9,201.9 788.8,201.9 766.5,245.1 	"/>
	<polygon class="st3" points="757.6,354.6 715.3,336.8 752.5,305.6 	"/>
	<polygon class="st3" points="788.3,385.2 745.9,367.5 783.1,336.3 	"/>
	<polygon class="st3" points="633.7,344.9 591.4,327.1 628.6,295.9 	"/>
	<polygon class="st3" points="664.4,375.5 622,357.7 659.2,326.5 	"/>
	<polygon class="st3" points="784.1,275.2 741.7,257.5 779,226.3 	"/>
	<polygon class="st3" points="791.1,301.7 748.7,283.9 785.9,252.7 	"/>
	<polygon class="st4" points="719.8,224.7 674.1,229.2 692,184 	"/>
	<polygon class="st4" points="761.3,237.1 715.6,241.6 733.5,196.4 	"/>
	<polygon class="st4" points="719.8,416.8 674.1,421.3 692,376.2 	"/>
	<polygon class="st4" points="761.3,429.2 715.6,433.7 733.5,388.6 	"/>
	<polygon class="st4" points="765.7,369.5 720,374 737.9,328.8 	"/>
	<polygon class="st4" points="784.2,381.9 738.5,386.4 756.5,341.2 	"/>
	<polygon class="st4" points="717,478.1 671.3,482.6 689.2,437.4 	"/>
	<polygon class="st4" points="758.5,490.5 712.8,495 730.7,449.8 	"/>
	<polygon class="st2" points="581.2,169.2 627.2,169.2 604.9,212.3 	"/>
	<polygon class="st2" points="675.9,218.6 721.8,218.6 699.6,261.8 	"/>
	<polygon class="st4" points="760.2,249.7 714.4,254.2 732.4,209.1 	"/>
	<polygon class="st2" points="627.2,272.2 673.1,272.2 650.8,315.4 	"/>
	<polygon class="st2" points="721.8,321.6 767.8,321.6 745.5,364.8 	"/>
	<polygon class="st3" points="720,280.8 677.7,263 714.9,231.9 	"/>
	<polygon class="st4" points="783.1,352.8 737.4,357.3 755.3,312.1 	"/>
	<polygon class="st2" points="539.4,281.3 585.4,281.3 563.1,324.4 	"/>
	<polygon class="st2" points="586.8,437.2 632.7,437.2 610.4,480.4 	"/>
	<polygon class="st2" points="546.4,417 592.3,417 570.1,460.2 	"/>
	<polygon class="st2" points="641.1,466.4 687,466.4 664.7,509.6 	"/>
	<polygon class="st2" points="629.9,497.8 675.9,497.8 653.6,540.9 	"/>
	<polygon class="st2" points="724.6,547.2 770.6,547.2 748.3,590.3 	"/>
	<polygon class="st2" points="593.7,380.8 639.7,380.8 617.4,424 	"/>
	<polygon class="st2" points="688.4,430.2 734.4,430.2 712.1,473.4 	"/>
	<polygon class="st2" points="629.9,316.8 675.9,316.8 653.6,359.9 	"/>
	<polygon class="st2" points="724.6,366.2 770.6,366.2 748.3,409.4 	"/>
	<polygon class="st3" points="728.4,518.9 686,501.1 723.3,469.9 	"/>
	<polygon class="st3" points="759,549.5 716.7,531.8 753.9,500.6 	"/>
	<polygon class="st3" points="604.5,509.1 562.1,491.4 599.4,460.2 	"/>
	<polygon class="st3" points="635.1,539.8 592.8,522 630,490.8 	"/>
	<polygon class="st3" points="754.9,439.5 712.5,421.8 749.7,390.6 	"/>
	<polygon class="st3" points="785.5,470.2 743.1,452.4 780.4,421.2 	"/>
	<polygon class="st4" points="690.6,389 644.8,393.5 662.8,348.3 	"/>
	<polygon class="st4" points="732.1,401.4 686.3,405.9 704.3,360.7 	"/>
	<polygon class="st4" points="690.6,581.1 644.8,585.6 662.8,540.5 	"/>
	<polygon class="st4" points="732.1,593.5 686.3,598 704.3,552.9 	"/>
	<polygon class="st4" points="736.5,533.8 690.8,538.3 708.7,493.1 	"/>
	<polygon class="st4" points="778,546.2 732.3,550.7 750.2,505.5 	"/>
	<polygon class="st6" points="742.1,621.5 696.3,626 714.3,580.8 	"/>
	<polygon class="st4" points="783.6,633.9 737.8,638.4 755.8,593.2 	"/>
	<polygon class="st2" points="552,333.5 597.9,333.5 575.6,376.6 	"/>
	<polygon class="st2" points="646.6,382.9 692.6,382.9 670.3,426.1 	"/>
	<polygon class="st4" points="730.9,414 685.2,418.5 703.1,373.4 	"/>
	<polygon class="st2" points="597.9,436.5 643.9,436.5 621.6,479.7 	"/>
	<polygon class="st2" points="692.6,485.9 738.5,485.9 716.3,529.1 	"/>
	<polygon class="st3" points="690.8,445.1 648.4,427.3 685.7,396.1 	"/>
	<polygon class="st4" points="776.9,517.1 731.1,521.6 749.1,476.4 	"/>
	<polygon class="st2" points="481.2,377 523.6,394.8 486.3,426 	"/>
	<polygon class="st2" points="549.4,459.2 591.8,477 554.6,508.2 	"/>
	<polygon class="st2" points="545.6,313.4 588,331.2 550.7,362.4 	"/>
	<polygon class="st2" points="613.8,395.6 656.2,413.4 618.9,444.6 	"/>
	<polygon class="st2" points="591.4,420.2 633.8,438 596.6,469.2 	"/>
	<polygon class="st2" points="659.6,502.4 702,520.1 664.8,551.3 	"/>
	<polygon class="st2" points="603.2,298.3 645.6,316.1 608.4,347.3 	"/>
	<polygon class="st2" points="671.4,380.5 713.8,398.3 676.6,429.5 	"/>
	<polygon class="st2" points="661.4,253.3 703.7,271 666.5,302.2 	"/>
	<polygon class="st2" points="729.6,335.4 772,353.2 734.7,384.4 	"/>
	<polygon class="st3" points="674.1,477.7 641.9,445 688.2,430.6 	"/>
	<polygon class="st3" points="690.5,517.8 658.3,485.1 704.7,470.7 	"/>
	<polygon class="st3" points="563.5,420.9 531.3,388.1 577.7,373.7 	"/>
	<polygon class="st3" points="580,461 547.7,428.2 594.1,413.8 	"/>
	<polygon class="st3" points="729.1,414.8 696.9,382 743.3,367.6 	"/>
	<polygon class="st3" points="745.5,454.9 713.3,422.1 759.7,407.7 	"/>
	<polygon class="st4" points="689.4,343.3 645.4,329.8 679.4,295.1 	"/>
	<polygon class="st4" points="722.9,370.7 678.9,357.2 712.9,322.5 	"/>
	<polygon class="st4" points="615.1,520.5 571.2,507 605.2,472.3 	"/>
	<polygon class="st4" points="648.6,548 604.7,534.4 638.7,499.7 	"/>
	<polygon class="st4" points="675.8,494.6 631.9,481.1 665.9,446.4 	"/>
	<polygon class="st4" points="709.3,522.1 665.4,508.5 699.4,473.8 	"/>
	<polygon class="st4" points="569.4,463.1 525.5,449.6 559.5,414.9 	"/>
	<polygon class="st4" points="602.9,490.6 559,477.1 593,442.4 	"/>
	<polygon class="st2" points="553.4,248.5 599.3,248.5 577,291.7 	"/>
	<polygon class="st2" points="588.2,165 634.1,165 611.8,208.2 	"/>
	<polygon class="st3" points="646.3,257.1 603.9,239.4 641.1,208.2 	"/>
	<polygon class="st3" points="676.9,287.8 634.5,270 671.8,238.8 	"/>
	<polygon class="st2" points="639.7,184.5 685.6,184.5 663.4,227.7 	"/>
	<polygon class="st2" points="553.4,248.5 599.3,248.5 577,291.7 	"/>
	<polygon class="st2" points="588.2,165 634.1,165 611.8,208.2 	"/>
	<polygon class="st3" points="646.3,257.1 603.9,239.4 641.1,208.2 	"/>
	<polygon class="st3" points="676.9,287.8 634.5,270 671.8,238.8 	"/>
	<polygon class="st2" points="639.7,184.5 685.6,184.5 663.4,227.7 	"/>
	<polygon class="st2" points="552,198.4 597.9,198.4 575.6,241.6 	"/>
	<polygon class="st2" points="646.6,247.9 692.6,247.9 670.3,291 	"/>
	<polygon class="st3" points="644.9,207 602.5,189.3 639.7,158.1 	"/>
	<polygon class="st3" points="675.5,237.7 633.1,219.9 670.4,188.7 	"/>
	<polygon class="st2" points="589.8,157.1 632.2,174.8 594.9,206 	"/>
	<polygon class="st4" points="655.5,218.4 611.6,204.9 645.6,170.2 	"/>
	<polygon class="st4" points="689,245.8 645.1,232.3 679.1,197.6 	"/>
	<polygon class="st4" points="629.3,273.8 585.3,260.3 619.3,225.6 	"/>
	<polygon class="st4" points="662.7,301.3 618.8,287.7 652.8,253 	"/>
	<polygon class="st2" points="583,238.5 625.4,256.3 588.1,287.5 	"/>
	<polygon class="st2" points="651.2,320.7 693.6,338.5 656.4,369.7 	"/>
	<polygon class="st4" points="716.9,382 673,368.5 707,333.8 	"/>
	<polygon class="st2" points="585.6,351.3 627.9,369.1 590.7,400.3 	"/>
	<polygon class="st2" points="653.8,433.5 696.2,451.3 658.9,482.5 	"/>
	<polygon class="st3" points="667.9,395.2 635.7,362.4 682.1,348 	"/>
	<polygon class="st4" points="719.5,494.8 675.6,481.3 709.6,446.6 	"/>
	<polygon class="st7" points="98.8,320.2 116.9,286.8 161.4,264.6 197.6,272.9 204.6,286.8 239.4,286.8 272.8,292.4 310.4,309.1 
		353.6,320.2 375.9,309.1 392.6,324.4 407.9,324.4 416.2,355.1 384.2,362 359.1,392.6 327.1,423.3 300.7,452.5 243.6,480.4 
		222.7,490.1 194.9,480.4 158.7,487.3 135,474.8 105.8,487.3 129.4,502.6 122.5,541.6 144.7,516.6 153.1,534.7 157.3,504 
		178.1,508.2 186.5,530.5 208.8,508.2 214.3,544.4 236.6,502.6 251.9,541.6 264.5,495.7 279.8,534.7 290.9,480.4 317.4,490.1 
		307.6,465 342.4,467.8 334.1,441.4 378.6,433 350.8,416.3 409.3,416.3 380,398.2 409.3,388.5 400.9,378.7 456.6,343.9 426,341.1 
		471.9,320.2 431.5,309.1 463.6,298 431.5,286.8 431.5,260.4 391.2,292.4 380,281.3 356.4,298 348,281.3 303.5,286.8 292.3,264.6 
		275.6,272.9 275.6,260.4 256.1,252 236.6,264.6 233.8,246.5 214.3,252 233.8,233.9 203.2,239.5 233.8,225.6 197.6,200.5 
		175.4,211.7 178.1,164.3 155.9,199.1 147.5,176.8 136.4,197.7 129.4,164.3 119.7,207.5 107.1,169.9 98.8,199.1 79.3,158.7 
		83.5,194.9 66.8,176.8 76.5,229.8 44.5,176.8 62.6,239.5 25,239.5 55.6,274.3 33.4,281.3 64,292.4 41.7,320.2 66.8,324.4 
		86.3,302.1 87.7,330 	"/>
	<polygon class="st8" points="473.3,444.1 430.9,426.4 468.1,395.2 	"/>
	<polygon class="st8" points="514.3,409.1 471.9,391.4 509.1,360.2 	"/>
	<polygon class="st8" points="332.3,552.1 289.9,534.4 327.1,503.2 	"/>
	<polygon class="st8" points="381.3,495.1 338.9,477.4 376.1,446.2 	"/>
	<polygon class="st8" points="265.3,576.1 222.9,558.4 260.1,527.2 	"/>
	<polygon class="st8" points="537.3,211.1 494.9,193.4 532.1,162.2 	"/>
</g>
</svg>
