<?xml version="1.0" encoding="utf-8"?>
<!-- Generator: Adobe Illustrator 22.1.0, SVG Export Plug-In . SVG Version: 6.00 Build 0)  -->
<svg version="1.1" id="Capa_1" xmlns="http://www.w3.org/2000/svg" xmlns:xlink="http://www.w3.org/1999/xlink" x="0px" y="0px"
	 viewBox="0 0 788 240" style="enable-background:new 0 0 788 240;" xml:space="preserve">
<style type="text/css">
	.st0{fill:#231F20;}
</style>
<g>
	<g>
		<path class="st0" d="M298.4,182.7c-10.5,0-19.1-3.5-25.8-10.5c-6.6-7-10-16.3-10-28c0-11.2,3.2-20.4,9.5-27.7
			c6.3-7.3,15.1-10.9,26.4-10.9c10.4,0,18.9,3.4,25.5,10.3c6.6,6.9,9.8,16.1,9.8,27.5c0,11.9-3.3,21.4-9.9,28.6
			C317.4,179.1,308.9,182.7,298.4,182.7z M298.3,165.7c3.9,0,6.7-1.7,8.4-5.1c1.7-3.4,2.6-9.6,2.6-18.6c0-13-3.5-19.5-10.5-19.5
			c-7.5,0-11.3,7.4-11.3,22.3C287.4,158.7,291.1,165.7,298.3,165.7z"/>
		<path class="st0" d="M404.4,106.6v49.6c0,9.4-2.8,16.2-8.4,20.3c-5.6,4.1-12.8,6.2-21.8,6.2c-9.4,0-17-2-22.7-5.9
			c-5.7-4-8.6-10.4-8.6-19.3v-50.8h23.4v48.1c0,3.6,0.8,6.2,2.3,7.8c1.5,1.6,3.9,2.5,7.3,2.5c2.8,0,5-0.6,6.8-1.8
			c1.8-1.2,2.8-2.5,3.2-4c0.3-1.5,0.5-4.4,0.5-8.8v-43.8H404.4z"/>
		<path class="st0" d="M435.1,104.2H452c8.2,0,14.7,1.4,19.6,4.3c4.9,2.9,8.6,7.2,11.1,12.9c2.5,5.7,3.8,12,3.8,19
			c0,7.3-1.1,13.8-3.4,19.6c-2.3,5.7-5.7,10.3-10.3,13.9c-4.6,3.5-11.2,5.3-19.8,5.3h-17.8V104.2z M447.5,114.2v55h5.2
			c7.2,0,12.5-2.5,15.7-7.5c3.3-5,4.9-11.7,4.9-20c0-18.4-6.9-27.5-20.6-27.5H447.5z"/>
		<path class="st0" d="M549.6,141.6c0,12.8-2.3,22.5-6.9,29c-4.6,6.5-11.2,9.8-19.9,9.8c-8.7,0-15.4-3.3-20.1-9.8
			c-4.6-6.5-7-16.2-7-29c0-12.7,2.3-22.4,6.9-28.9c4.6-6.6,11.3-9.8,20.1-9.8c8.7,0,15.3,3.3,19.9,9.8
			C547.3,119.2,549.6,128.9,549.6,141.6z M536.6,141.7c0-8.9-1-15.9-3.1-21c-2.1-5.1-5.7-7.7-10.8-7.7c-5.2,0-8.8,2.6-10.8,7.7
			c-2,5.1-3.1,12.1-3.1,21c0,8.7,1,15.7,3,20.9c2,5.2,5.7,7.8,11,7.8c5,0,8.6-2.5,10.6-7.6C535.6,157.8,536.6,150.7,536.6,141.7z"/>
		<path class="st0" d="M589.3,104.2h12.4v74.9h-12.4V104.2z"/>
		<path class="st0" d="M607.1,104.2h45.8v10.5h-16.7v64.3h-12.4v-64.3h-16.6V104.2z"/>
	</g>
	<g>
		<path class="st0" d="M102.2,49.5h4.7c1.1,3.3,2.8,5.7,5.3,7.1c3.2,1.9,8.4,2.8,15.6,2.8c4.6,0,19.2-0.5,43.7-1.4
			c14.8-0.6,24.1-0.9,27.7-0.9c11,0,20.4,1.9,28.2,5.7c7.7,3.8,14.1,9.6,18.9,17.5c4.9,7.9,8.1,18.7,9.7,32.4
			c1.1,9.6,2.1,30.9,2.9,63.8c-13,8.2-22.9,15.3-29.9,21.3c-21.1-5.9-39.8-8.9-56-8.9c-11,0-21.1,1.3-30.5,4
			c-9.4,2.6-19.3,6.9-29.8,12.7l-2.9-3.8c13.7-7.1,25.7-14.3,36-21.7c10.3-7.4,17.1-14,20.4-19.8c3.3-5.8,4.9-13.2,4.9-22.2
			c0-3.3-0.1-8.1-0.2-14.5c-0.1-4.5-0.2-9.1-0.2-13.9c0-8.5,0.5-14.7,1.4-18.7c1-4,3-8.6,6.1-13.8h-2.6c-8.1,4.7-13.5,8.9-16.1,12.7
			c-2.7,3.8-4,8.7-4,14.6l0.8,35.4c0,9.4-2.8,17.9-8.5,25.4c-5.7,7.5-19.2,18.3-40.8,32.4l-2.9-3.9c10.9-7.6,18.1-13.8,21.5-18.6
			c3.5-4.8,5.2-9.9,5.2-15.2c0-4.6-1.5-8.5-4.4-11.7c-2.9-3.2-6.2-4.8-9.7-4.8c-1.8,0-3.5,0.5-5,1.5c-1.5,1-3.6,3.1-6.2,6.2
			l-3.2-3.2c2.3-5.7,5.3-9.9,9.1-12.5c3.8-2.7,8.3-4,13.6-4c1.5,0,3.2,0.2,5.1,0.5c1.8,0.3,3.8,0.8,6,1.5c-0.1-3.9-0.2-7.2-0.2-10.1
			c0-10.4,2.1-18.9,6.3-25.5s12.3-13.4,24.3-20.5c-11,1.1-20.5,1.7-28.5,1.7c-8.5,0-15.7-1.2-21.8-3.6c-4.5-1.9-7.9-4.8-10-8.9
			C103.9,62.3,102.6,56.7,102.2,49.5z M183,77.2c-2.9,4.9-4.8,9.1-5.8,12.7c-1.3,4.9-2,9.5-2,13.8l0.8,39.3c0,5.1-1.3,10.2-3.8,15.5
			c-1.9,3.9-5.5,8.7-10.8,14.4c9.7-1.5,17.1-2.3,22.2-2.2l5.7,0.1V77.2H183z M194.4,115.5c4.1,2.9,7.6,4.8,10.7,5.9
			c3,1.1,6.3,1.6,9.9,1.6c3.5,0,6.8-0.5,9.9-1.6c3.1-1.1,6.7-3,10.8-5.8c-1.3-15-5.1-25.1-11.6-30.4c-6.5-5.3-16.3-7.9-29.6-7.9
			V115.5z M194.4,148.4c4.5-2.6,8.4-4.4,11.6-5.3c3.2-1,6.7-1.4,10.5-1.4c3.7,0,7.1,0.4,10.2,1.3c3.1,0.9,6.9,2.6,11.3,5l-1.6-27
			c-4.3,2.6-7.9,4.4-11,5.3c-3.1,1-6.5,1.4-10.1,1.4c-3.5,0-7-0.6-10.5-1.7c-3.5-1.1-6.9-2.8-10.2-5.1V148.4z M194.4,170.9
			c8.1,0.7,14.7,1.5,19.8,2.4c5.1,1,13.1,3,23.9,6c0.1-10,0.2-15.2,0.2-15.6c0-0.8-0.1-4-0.2-9.6c-4.3-2.9-8-5-11.2-6.1
			c-3.2-1.1-6.7-1.7-10.5-1.7c-3.9,0-7.4,0.6-10.7,1.7c-3.3,1.1-7,3.2-11.2,6.1V170.9z"/>
	</g>
	<g>
		<path class="st0" d="M674.1,104.9H693l-4.8,54.2h-9.4L674.1,104.9z M675.7,165.5h15.6v13.7h-15.6V165.5z"/>
	</g>
</g>
</svg>
